<svg xmlns="http://www.w3.org/2000/svg" viewBox="0 0 327.47 327.47">
    <defs>
        <style>.cls-1{fill:#0076b4;}.cls-2{fill:#fff;}</style>
    </defs>
    <title>Asset 3</title>
    <g id="Layer_2" data-name="Layer 2">
        <g id="Background">
            <circle class="cls-1" cx="163.74" cy="163.74" r="163.74" transform="translate(-67.82 163.74) rotate(-45)"/>
            <path class="cls-2"
                  d="M112.88,245.44H74.67V122.62h38.21Zm-19.1-139.6A22.14,22.14,0,1,1,115.9,83.7,22.12,22.12,0,0,1,93.78,105.84Zm162.06,139.6H217.67V185.71c0-14.24-.25-32.56-19.83-32.56C178,153.15,175,168.67,175,184.69v60.75H136.82V122.62h36.59v16.79h.52c5.09-9.65,17.54-19.83,36.12-19.83,38.64,0,45.78,25.42,45.78,58.5v67.36Z"/>
        </g>
    </g>
</svg>
