<svg xmlns="http://www.w3.org/2000/svg" viewBox="0 0 327.47 327.47">
    <defs>
        <style>.cls-1{fill:#1da1f2;}.cls-2{fill:#fff;}</style>
    </defs>
    <title>Asset 2</title>
    <g id="Layer_2" data-name="Layer 2">
        <g id="Background">
            <circle class="cls-1" cx="163.74" cy="163.74" r="163.74"
                    transform="translate(-47.92 257.67) rotate(-68.93)"/>
            <path class="cls-2"
                  d="M264.49,101.25a82.23,82.23,0,0,1-23.75,6.51,41.42,41.42,0,0,0,18.18-22.87,82.65,82.65,0,0,1-26.26,10,41.36,41.36,0,0,0-71.51,28.28,41.81,41.81,0,0,0,1.07,9.43A117.37,117.37,0,0,1,77,89.43a41.38,41.38,0,0,0,12.79,55.19,41.07,41.07,0,0,1-18.73-5.17V140a41.37,41.37,0,0,0,33.16,40.54,41.63,41.63,0,0,1-18.67.7,41.38,41.38,0,0,0,38.61,28.71,83,83,0,0,1-51.34,17.69A84.37,84.37,0,0,1,63,227a117.12,117.12,0,0,0,63.38,18.57c76,0,117.61-63,117.61-117.62,0-1.79-.05-3.58-.13-5.35a83.66,83.66,0,0,0,20.65-21.39"/>
        </g>
    </g>
</svg>
