<svg xmlns="http://www.w3.org/2000/svg" viewBox="0 0 327.47 327.47">
    <defs>
        <style>.cls-1{fill:#f10;}.cls-2{fill:#fff;}</style>
    </defs>
    <title>Asset 4</title>
    <g id="Layer_2" data-name="Layer 2">
        <g id="Background">
            <circle class="cls-1" cx="163.74" cy="163.74" r="163.74"
                    transform="translate(-33.24 285.47) rotate(-76.72)"/>
            <path class="cls-2"
                  d="M264,122.81s-2-14.1-8.14-20.31c-7.78-8.15-16.51-8.19-20.51-8.67-28.63-2.07-71.6-2.07-71.6-2.07h-.09s-43,0-71.6,2.07c-4,.48-12.72.52-20.51,8.67-6.14,6.21-8.13,20.31-8.13,20.31a309.27,309.27,0,0,0-2.05,33.13v15.53a309.27,309.27,0,0,0,2.05,33.13s2,14.09,8.13,20.31c7.79,8.15,18,7.9,22.57,8.75,16.37,1.57,69.59,2.06,69.59,2.06s43-.06,71.65-2.14c4-.48,12.72-.51,20.5-8.67C262,218.69,264,204.6,264,204.6a312.27,312.27,0,0,0,2-33.13V155.94a310.76,310.76,0,0,0-2-33.13M140,193V130.09l60.47,31.55Z"/>
        </g>
    </g>
</svg>
